# xmcd
#
# Track frame offsets:
#	150
#	17052
#	31319
#	48114
#	62140
#	79195
#	94677
#	106037
#	118489
#	131372
#	147690
#	161295
#	183277
#	199269
#	215032
#
# Disc length: 3069 seconds
#
# Revision: 1
# Processed by: cddbd v1.5.2PL0 Copyright (c) Steve Scherf et al.
# Submitted via: audiograbber 1.83.01
#
DISCID=d10bfb0f
DTITLE=Various Artist - 200 Country Hits 1978-1985 disc 5
DYEAR=1900
DGENRE=Karaoke
TTITLE0=T.G. Sheppard - Party time
TTITLE1=The Bellamy Brothers - Do you love as good as you look
TTITLE2=Barbara Mandrell - I was country when country wasn't cool
TTITLE3=Hank Williams Jr. - All my rowdy friends are coming over tonight
TTITLE4=Mickey Gilley - A headache tomorrow
TTITLE5=Earl Thomas Conley - Fire and smoke
TTITLE6=Dolly Parton - 9 to 5
TTITLE7=Ronnie McDowell - Older women
TTITLE8=George Jones - Still doin time
TTITLE9=Rosanne Cash - My baby thinks he's a train
TTITLE10=Conway Twitty - Tight fittin jeans
TTITLE11=Merle Haggard - I think I'll just stay here and drink
TTITLE12=Dolly Parton - But you know I love you
TTITLE13=Ronnie Milsap - There's no gettin over me
TTITLE14=Mickey Gilley - You don't know me
EXTD=
EXTT0=
EXTT1=
EXTT2=
EXTT3=
EXTT4=
EXTT5=
EXTT6=
EXTT7=
EXTT8=
EXTT9=
EXTT10=
EXTT11=
EXTT12=
EXTT13=
EXTT14=
PLAYORDER=
